<svg data-name="Membership Screening" width="88" height="80" fill="none" xmlns="http://www.w3.org/2000/svg">
    <rect fill="#181926" height="56" rx="8" width="56" x="16" y="12"/>
    <path d="M61.452 33.85l-5.216-3.28-1.895-1.197-3.78-2.333-1.884-1.236-4.228-2.662-.22-.09a.938.938 0 00-.618 0l-.11.05-4.278 2.702-1.884 1.236-3.78 2.333-1.895 1.197-5.215 3.28a.936.936 0 00-.449.797v21.416a.997.997 0 00.997.937h34.006a.997.997 0 00.997-.937V34.647a.937.937 0 00-.548-.797zM27.885 55.116v-19.94l3.78-2.383v22.323zm5.674 0v-23.51l3.78-2.382v25.922zm5.664-27.079l3.78-2.382v29.46h-3.78zm5.724 27.079V25.655l3.73 2.382v27.079zm5.665 0V29.194l3.78 2.383v23.539zm9.453 0h-3.829V32.793l3.78 2.383z" fill="#fff"/>
    <g fill="#5ae6dc">
        <path d="M83.003 1.084a1.084 1.084 0 00-2.168 0v1.102a1.084 1.084 0 102.168 0zM83.003 9.814a1.084 1.084 0 00-2.168 0v1.102a1.084 1.084 0 102.168 0zM86.916 7.105a1.084 1.084 0 100-2.167h-1.102a1.084 1.084 0 000 2.167zM78.186 7.045a1.084 1.084 0 100-2.167h-1.102a1.084 1.084 0 100 2.167z"/>
    </g>
    <path d="M8.363 75.843l3.123-1.042a.881.881 0 000-1.602l-3.123-1.042a.961.961 0 01-.48-.48L6.76 68.55a.802.802 0 00-1.522 0l-1.121 3.125a.961.961 0 01-.48.481L.513 73.199a.881.881 0 000 1.602l3.123 1.042a.72.72 0 01.48.48L5.24 79.45a.802.802 0 001.522 0l1.121-3.125a.72.72 0 01.48-.481z" fill="#ffd01a"/>
</svg>