<svg data-name="Subscriptions" xmlns="http://www.w3.org/2000/svg" width="24" height="24" viewBox="0 0 24 24">
    <path d="M10.595 16.907l4.232 2.586a1.176 1.176 0 001.764-1.293l-1.176-4.82a1.176 1.176 0 01.353-1.176l3.762-3.292a1.176 1.176 0 00-.706-2.116l-4.938-.47a1.023 1.023 0 01-.94-.706l-1.881-4.585a1.234 1.234 0 00-2.234 0L6.95 5.738a1.176 1.176 0 01-.94.705l-4.938.353a1.246 1.246 0 00-.706 2.116l3.762 3.292a1.07 1.07 0 01.353 1.176L3.305 18.2a1.176 1.176 0 001.764 1.293L9.3 16.907a1.27 1.27 0 011.294 0z"/>
</svg>