<svg data-name="Threads" xmlns="http://www.w3.org/2000/svg" viewBox="0 0 24 24">
    <path d="M3.81 20.54a.13.13 0 01-.13-.16l.76-4.31H.13a.13.13 0 01-.13-.15l.35-2a.13.13 0 01.13-.11h4.35L6 7.14H1.71A.12.12 0 011.58 7l.34-2a.14.14 0 01.13-.11h4.36L7.18.56a.14.14 0 01.13-.12h2A.13.13 0 019.4.6l-.76 4.31h6.7l.77-4.35a.14.14 0 01.13-.12h2a.13.13 0 01.13.16l-.76 4.31h4.31a.14.14 0 01.13.16l-.35 2a.12.12 0 01-.13.11h-4.39l-.4 2.28h-2.24L15 7.14H8.25l-1.19 6.7h2.47v2.23H6.67l-.77 4.36a.14.14 0 01-.13.11z"/><path d="M12.75 11.56a1.08 1.08 0 00-1.08 1.08v7a1.07 1.07 0 001.08 1.07h1.07a.27.27 0 01.27.27v2.28a.27.27 0 00.44.2L17.26 21a1.09 1.09 0 01.72-.28h4.95A1.07 1.07 0 0024 19.67v-7a1.07 1.07 0 00-1.07-1.08z"/>
</svg>