<svg xmlns="http://www.w3.org/2000/svg" width="20" height="20" viewBox="0 0 172 172">
    <g fill="none" stroke-miterlimit="10" font-family="none" font-weight="none" font-size="none" text-anchor="none" style="mix-blend-mode:normal">
        <path d="M0 172V0h172v172z"/>
        <g fill="#9b59b6">
            <path d="M28.667 28.667h114.666v28.666H28.667z" opacity=".3"/>
            <path d="M43 7.167h14.333v28.666H43zm71.667 0H129v28.666h-14.333z"/>
            <path d="M136.167 21.5H35.833C27.95 21.5 21.5 27.95 21.5 35.833v100.334c0 7.883 6.45 14.333 14.333 14.333h100.334c7.883 0 14.333-6.45 14.333-14.333V35.833c0-7.883-6.45-14.333-14.333-14.333zm0 114.667H35.833V64.5h100.334zm0-86H35.833V35.833h100.334z"/>
        </g>
    </g>
</svg>
